<svg xmlns="http://www.w3.org/2000/svg" width="19.163" height="21.139" viewBox="0 0 19.163 21.139">
  <path id="trash-alt" d="M10.452,18.911a1.061,1.061,0,0,0,1.065-1.057V11.512a1.065,1.065,0,0,0-2.129,0v6.342A1.061,1.061,0,0,0,10.452,18.911ZM21.1,6.228H16.84V5.171A3.182,3.182,0,0,0,13.646,2H11.517A3.182,3.182,0,0,0,8.323,5.171V6.228H4.065a1.057,1.057,0,1,0,0,2.114H5.129V19.968a3.182,3.182,0,0,0,3.194,3.171H16.84a3.182,3.182,0,0,0,3.194-3.171V8.342H21.1a1.057,1.057,0,1,0,0-2.114ZM10.452,5.171a1.061,1.061,0,0,1,1.065-1.057h2.129a1.061,1.061,0,0,1,1.065,1.057V6.228H10.452Zm7.452,14.8a1.061,1.061,0,0,1-1.065,1.057H8.323a1.061,1.061,0,0,1-1.065-1.057V8.342H17.9Zm-3.194-1.057a1.061,1.061,0,0,0,1.065-1.057V11.512a1.065,1.065,0,0,0-2.129,0v6.342A1.061,1.061,0,0,0,14.711,18.911Z" transform="translate(-3 -2)" fill="#FFF"/>
</svg>
