<svg xmlns="http://www.w3.org/2000/svg" width="21.139" height="21.139" viewBox="0 0 21.139 21.139">
  <path id="edit" d="M22.076,12.567a1.057,1.057,0,0,0-1.057,1.057v6.34a1.057,1.057,0,0,1-1.057,1.057H5.17a1.057,1.057,0,0,1-1.057-1.057V5.17A1.057,1.057,0,0,1,5.17,4.114h6.34A1.057,1.057,0,1,0,11.51,2H5.17A3.17,3.17,0,0,0,2,5.17V19.963a3.17,3.17,0,0,0,3.17,3.17H19.963a3.17,3.17,0,0,0,3.17-3.17v-6.34A1.057,1.057,0,0,0,22.076,12.567Zm-15.849.8v4.48a1.057,1.057,0,0,0,1.057,1.057h4.48a1.057,1.057,0,0,0,.75-.306l7.312-7.322h0l3-2.937a1.057,1.057,0,0,0,0-1.5l-4.48-4.533a1.057,1.057,0,0,0-1.5,0L13.866,5.3h0L6.533,12.619A1.057,1.057,0,0,0,6.226,13.37ZM17.6,4.547l2.99,2.99-1.5,1.5L16.1,6.047ZM8.34,13.8l6.266-6.266,2.99,2.99L11.33,16.793H8.34Z" transform="translate(-2 -1.994)" fill="#FFF"/>
</svg>
