<svg xmlns="http://www.w3.org/2000/svg" width="21.111" height="21.139" viewBox="0 0 21.111 21.139">
  <path id="share-alt" d="M18.884,14.664a4.221,4.221,0,0,0-3.25,1.562l-5.382-2.48a3.841,3.841,0,0,0,0-2.385l5.382-2.48a4.221,4.221,0,1,0-.971-2.659,4.4,4.4,0,0,0,.074.749L9.165,9.536a4.221,4.221,0,1,0,0,6.036l5.571,2.564a4.4,4.4,0,0,0-.074.749,4.221,4.221,0,1,0,4.221-4.221Zm0-10.552a2.11,2.11,0,1,1-2.11,2.11A2.11,2.11,0,0,1,18.884,4.112ZM6.221,14.664a2.11,2.11,0,1,1,2.11-2.11A2.11,2.11,0,0,1,6.221,14.664ZM18.884,21a2.11,2.11,0,1,1,2.11-2.11A2.11,2.11,0,0,1,18.884,21Z" transform="translate(-1.993 -1.967)" fill="#FFF"/>
</svg>
