<svg xmlns="http://www.w3.org/2000/svg" width="93.178" height="92.176" viewBox="0 0 93.178 92.176">
  <path id="user-circle" d="M48.608,2A46.7,46.7,0,0,0,5.95,29.607,45.727,45.727,0,0,0,14.3,79.324h0a47.049,47.049,0,0,0,68.615,0h0a45.727,45.727,0,0,0,8.351-49.717A46.7,46.7,0,0,0,48.608,2Zm0,83.044A37.572,37.572,0,0,1,22.7,74.664a28.132,28.132,0,0,1,51.811,0A37.573,37.573,0,0,1,48.608,85.044ZM39.273,38.909a9.336,9.336,0,1,1,9.335,9.227A9.282,9.282,0,0,1,39.273,38.909ZM80.862,66.59A37.219,37.219,0,0,0,62.611,51a18.3,18.3,0,0,0-1.079-25.525,18.829,18.829,0,0,0-25.847,0A18.3,18.3,0,0,0,34.6,51,37.219,37.219,0,0,0,16.354,66.59a36.217,36.217,0,0,1-5.088-18.454,37.344,37.344,0,0,1,74.683,0A36.217,36.217,0,0,1,80.862,66.59Z" transform="translate(-2.019 -2)" fill="#FFF"/>
</svg>
